<svg xmlns="http://www.w3.org/2000/svg" xmlns:xlink="http://www.w3.org/1999/xlink" width="171.84" height="36.766" viewBox="0 0 171.84 36.766">
  <defs>
    <linearGradient id="linear-gradient" x1="-0.007" y1="-0.021" x2="1.004" y2="1.018" gradientUnits="objectBoundingBox">
      <stop offset="0" stop-color="#1306a3"/>
      <stop offset="0.145" stop-color="#1d0eaa"/>
      <stop offset="0.394" stop-color="#3826be"/>
      <stop offset="0.715" stop-color="#654dde"/>
      <stop offset="1" stop-color="#9375ff"/>
    </linearGradient>
    <linearGradient id="linear-gradient-2" x1="-0.383" y1="0.305" x2="3.334" y2="1.339" xlink:href="#linear-gradient"/>
    <linearGradient id="linear-gradient-3" x1="-2.054" y1="-0.177" x2="2.858" y2="1.135" xlink:href="#linear-gradient"/>
    <linearGradient id="linear-gradient-4" x1="-2.223" y1="-0.506" x2="1.264" y2="0.783" xlink:href="#linear-gradient"/>
    <linearGradient id="linear-gradient-5" x1="-0.339" y1="0.426" x2="9.468" y2="1.313" xlink:href="#linear-gradient"/>
    <linearGradient id="linear-gradient-6" x1="-0.949" y1="0.213" x2="4.555" y2="1.383" xlink:href="#linear-gradient"/>
    <linearGradient id="linear-gradient-7" x1="-3.628" y1="0" x2="5.747" y2="1.148" xlink:href="#linear-gradient"/>
    <linearGradient id="linear-gradient-8" x1="-6.882" y1="-0.168" x2="5.974" y2="1.002" xlink:href="#linear-gradient"/>
    <linearGradient id="linear-gradient-9" x1="-7.588" y1="-0.157" x2="4.456" y2="0.811" xlink:href="#linear-gradient"/>
    <linearGradient id="linear-gradient-10" x1="-7.128" y1="-0.23" x2="2.379" y2="0.681" xlink:href="#linear-gradient"/>
    <linearGradient id="linear-gradient-11" x1="-63.886" y1="-0.295" x2="8.552" y2="0.602" xlink:href="#linear-gradient"/>
    <linearGradient id="linear-gradient-12" x1="-14.246" y1="-0.436" x2="1.126" y2="0.536" xlink:href="#linear-gradient"/>
  </defs>
  <g id="headerlogo" transform="translate(-23 -9.385)">
    <rect id="back" width="36.766" height="36.766" rx="6" transform="translate(23 9.385)" fill="url(#linear-gradient)"/>
    <g id="pro">
      <path id="back-2" data-name="back" d="M5,0H16.33a0,0,0,0,1,0,0V4.45a5,5,0,0,1-5,5H0a0,0,0,0,1,0,0V5A5,5,0,0,1,5,0Z" transform="translate(42.43 35.713)" fill="#fff"/>
      <path id="Path_1996" data-name="Path 1996" d="M260.576,143.085a1.557,1.557,0,0,1-.46,1.2,1.853,1.853,0,0,1-1.3.425h-.353v1.541H257.2v-4.647h1.608a1.967,1.967,0,0,1,1.322.385A1.372,1.372,0,0,1,260.576,143.085Zm-2.117.6h.229a.626.626,0,0,0,.45-.159.579.579,0,0,0,.167-.439q0-.47-.521-.471h-.324Z" transform="translate(-212.201 -103.379)" fill="url(#linear-gradient-2)"/>
      <path id="Path_1997" data-name="Path 1997" d="M268.066,143.562a1.791,1.791,0,0,1,.308.026l.07.013-.111,1.173a1.849,1.849,0,0,0-.423-.038.8.8,0,0,0-.591.186.728.728,0,0,0-.185.536v1.77h-1.242v-3.6h.924l.194.575h.06a1.247,1.247,0,0,1,.435-.463A1.037,1.037,0,0,1,268.066,143.562Z" transform="translate(-216.525 -104.352)" fill="url(#linear-gradient-3)"/>
      <path id="Path_1998" data-name="Path 1998" d="M275.9,145.418a1.908,1.908,0,0,1-.475,1.378,1.759,1.759,0,0,1-1.33.494,1.722,1.722,0,0,1-1.3-.505,2.186,2.186,0,0,1-.01-2.735,1.775,1.775,0,0,1,1.333-.488,1.907,1.907,0,0,1,.938.226,1.541,1.541,0,0,1,.628.647A2.088,2.088,0,0,1,275.9,145.418Zm-2.334,0a1.6,1.6,0,0,0,.125.707.431.431,0,0,0,.416.243.42.42,0,0,0,.409-.243,1.667,1.667,0,0,0,.119-.707,1.574,1.574,0,0,0-.121-.7.478.478,0,0,0-.823,0A1.531,1.531,0,0,0,273.57,145.418Z" transform="translate(-219.719 -104.352)" fill="url(#linear-gradient-4)"/>
    </g>
    <g id="code">
      <path id="Path_10" data-name="Path 10" d="M242.373,116.523l-11.29,8.063h0a.834.834,0,0,1-.834-.833h0v-3.784l4.836-3.451a.333.333,0,0,0,.079-.465.34.34,0,0,0-.079-.079l-4.836-3.45v-5.213l12.124,8.657a.334.334,0,0,1,.091.463.34.34,0,0,1-.091.091Z" transform="translate(-198.789 -86.314)" fill="#efefef"/>
      <path id="Path_11" data-name="Path 11" d="M242.373,116.523l-3.5,2.5a.473.473,0,0,0-.185-.512l-8.437-5.989v-5.213l12.124,8.657a.334.334,0,0,1,.091.463.34.34,0,0,1-.091.091Z" transform="translate(-198.789 -86.314)" fill="#fff"/>
      <path id="Path_12" data-name="Path 12" d="M245.471,100.769l11.29-8.064h0a.834.834,0,0,1,.834.834v3.784l-4.836,3.452a.334.334,0,0,0-.077.465.338.338,0,0,0,.077.077l4.837,3.45v5.213l-12.124-8.656a.333.333,0,0,1-.093-.462A.327.327,0,0,1,245.471,100.769Z" transform="translate(-206.291 -79.047)" fill="#efefef"/>
      <path id="Path_13" data-name="Path 13" d="M245.472,106.276l3.5-2.5a.474.474,0,0,0,.183.52l8.439,5.98v5.213l-12.124-8.657a.333.333,0,0,1,0-.554Z" transform="translate(-206.293 -84.555)" fill="#fff"/>
    </g>
    <g id="text">
      <path id="Path_1988" data-name="Path 1988" d="M165.3,192.211a5.246,5.246,0,0,1-1.978,4.332,8.594,8.594,0,0,1-5.505,1.583,12.92,12.92,0,0,1-5.747-1.222v-4a23.711,23.711,0,0,0,3.477,1.291,10.312,10.312,0,0,0,2.6.375,3.7,3.7,0,0,0,2.173-.542,1.853,1.853,0,0,0,.757-1.61,1.778,1.778,0,0,0-.333-1.062,3.738,3.738,0,0,0-.978-.9,25.21,25.21,0,0,0-2.631-1.374,12.449,12.449,0,0,1-2.79-1.68,6.307,6.307,0,0,1-1.486-1.875,5.344,5.344,0,0,1-.555-2.5,5.246,5.246,0,0,1,1.826-4.235,7.588,7.588,0,0,1,5.047-1.541,11.906,11.906,0,0,1,3.019.375,20.689,20.689,0,0,1,3.006,1.055l-1.389,3.345a20.3,20.3,0,0,0-2.686-.93,8.653,8.653,0,0,0-2.089-.264,2.771,2.771,0,0,0-1.875.569,1.879,1.879,0,0,0-.652,1.486,1.831,1.831,0,0,0,.264.993,2.893,2.893,0,0,0,.84.819,25.84,25.84,0,0,0,2.728,1.423,10.86,10.86,0,0,1,3.9,2.728A5.322,5.322,0,0,1,165.3,192.211Z" transform="translate(-83.619 -159.91)" fill="url(#linear-gradient-5)"/>
      <path id="Path_1989" data-name="Path 1989" d="M193.817,200.462h-4.235V191.4a4.569,4.569,0,0,0-.562-2.52,1.978,1.978,0,0,0-1.77-.84,2.566,2.566,0,0,0-2.361,1.194,7.834,7.834,0,0,0-.735,3.929v7.3H179.92V184.94h3.235l.569,1.986h.236a4.3,4.3,0,0,1,1.8-1.673,5.86,5.86,0,0,1,2.707-.6q3.485,0,4.721,2.277h.375a4.191,4.191,0,0,1,1.84-1.68,6.132,6.132,0,0,1,2.742-.6A5.41,5.41,0,0,1,202.14,186a5.943,5.943,0,0,1,1.354,4.339v10.121h-4.249V191.4a4.569,4.569,0,0,0-.562-2.52,1.978,1.978,0,0,0-1.77-.84,2.642,2.642,0,0,0-2.326,1.111,6.3,6.3,0,0,0-.77,3.526Z" transform="translate(-93.473 -162.525)" fill="url(#linear-gradient-6)"/>
      <path id="Path_1990" data-name="Path 1990" d="M234.62,200.447l-.819-2.111h-.111a6.252,6.252,0,0,1-2.2,1.868,7.113,7.113,0,0,1-2.95.521,4.77,4.77,0,0,1-3.52-1.278,4.9,4.9,0,0,1-1.284-3.638,4.1,4.1,0,0,1,1.729-3.644,10.015,10.015,0,0,1,5.213-1.3l2.693-.083v-.68a2.111,2.111,0,0,0-2.416-2.36,11.008,11.008,0,0,0-4.374,1.124l-1.4-2.86a12.623,12.623,0,0,1,5.943-1.4,7.4,7.4,0,0,1,4.79,1.361,5.028,5.028,0,0,1,1.666,4.137v10.343Zm-1.25-7.192-1.638.056a5.252,5.252,0,0,0-2.749.666,2.092,2.092,0,0,0-.9,1.86q0,1.791,2.054,1.791a3.255,3.255,0,0,0,2.354-.847,2.975,2.975,0,0,0,.881-2.249Z" transform="translate(-108.975 -162.51)" fill="url(#linear-gradient-7)"/>
      <path id="Path_1991" data-name="Path 1991" d="M262.764,184.649a6.826,6.826,0,0,1,1.43.125l-.319,3.97a4.859,4.859,0,0,0-1.249-.139,4.487,4.487,0,0,0-3.159,1.042,3.762,3.762,0,0,0-1.132,2.915v7.9H254.1V184.94h3.207l.625,2.61h.208a5.826,5.826,0,0,1,1.951-2.1A4.8,4.8,0,0,1,262.764,184.649Z" transform="translate(-119.717 -162.525)" fill="url(#linear-gradient-8)"/>
      <path id="Path_1992" data-name="Path 1992" d="M281.962,195.717a9.184,9.184,0,0,0,2.666-.486v3.152a9.511,9.511,0,0,1-3.888.708,4.754,4.754,0,0,1-3.7-1.285,5.588,5.588,0,0,1-1.159-3.853V186.47h-2.027V184.68l2.333-1.417,1.221-3.276h2.708v3.3h4.345v3.179h-4.345v7.483a1.65,1.65,0,0,0,.507,1.333A2,2,0,0,0,281.962,195.717Z" transform="translate(-126.705 -160.877)" fill="url(#linear-gradient-9)"/>
      <path id="Path_1993" data-name="Path 1993" d="M312.238,198.008H310.5l-7.789-10.718-2.707,2.388v8.33H298.59v-20.3h1.416v10.551l2.249-2.249,7.956-8.3h1.8l-8.316,8.58Z" transform="translate(-135.457 -160.07)" fill="url(#linear-gradient-10)"/>
      <path id="Path_1994" data-name="Path 1994" d="M325.519,178.548q0-1.333.875-1.332a.778.778,0,0,1,.673.347,1.706,1.706,0,0,1,.243.985,1.75,1.75,0,0,1-.243.986.77.77,0,0,1-.673.361Q325.519,179.9,325.519,178.548Zm1.569,19.284h-1.374V182.741h1.374Z" transform="translate(-144.984 -159.896)" fill="url(#linear-gradient-11)"/>
      <path id="Path_1995" data-name="Path 1995" d="M340.758,197.915a10.284,10.284,0,0,0,2.277-.222V198.8a7.282,7.282,0,0,1-2.305.333,3.75,3.75,0,0,1-2.95-1.069,4.962,4.962,0,0,1-.951-3.36v-9.746h-2.235v-.805l2.235-.625.695-3.415h.708v3.651h4.429v1.194h-4.429v9.552a4.355,4.355,0,0,0,.611,2.569A2.216,2.216,0,0,0,340.758,197.915Z" transform="translate(-148.195 -160.922)" fill="url(#linear-gradient-12)"/>
    </g>
  </g>
</svg>
